<svg width="24" height="24" viewBox="0 0 24 24" fill="none" xmlns="http://www.w3.org/2000/svg">
<path d="M18 13V19C18 19.5304 17.7893 20.0391 17.4142 20.4142C17.0391 20.7893 16.5304 21 16 21H5C4.46957 21 3.96086 20.7893 3.58579 20.4142C3.21071 20.0391 3 19.5304 3 19V8C3 7.46957 3.21071 6.96086 3.58579 6.58579C3.96086 6.21071 4.46957 6 5 6H11" stroke="white" stroke-opacity="0.6" stroke-width="2" stroke-linecap="round" stroke-linejoin="round"/>
<path d="M9.29289 13.2929C8.90237 13.6834 8.90237 14.3166 9.29289 14.7071C9.68342 15.0976 10.3166 15.0976 10.7071 14.7071L9.29289 13.2929ZM22 3C22 2.44772 21.5523 2 21 2H12C11.4477 2 11 2.44772 11 3C11 3.55228 11.4477 4 12 4H20V12C20 12.5523 20.4477 13 21 13C21.5523 13 22 12.5523 22 12V3ZM10.7071 14.7071L21.7071 3.70711L20.2929 2.29289L9.29289 13.2929L10.7071 14.7071Z" fill="white" fill-opacity="0.6"/>
</svg>
