<svg width="24" height="24" viewBox="0 0 24 24" fill="none" xmlns="http://www.w3.org/2000/svg">
<g clip-path="url(#clip0_2739_1415)">
<path fill-rule="evenodd" clip-rule="evenodd" d="M18.5789 2.72656V4.23633H21.106H21.1081V4.24023C21.9062 4.24219 22.6297 4.54688 23.1521 5.04102C23.6704 5.53125 23.9938 6.20898 23.9959 6.95898H24V6.96289V21.2734V21.2754H23.9959C23.9938 22.0254 23.6704 22.707 23.1459 23.2012C22.6256 23.6895 21.9062 23.9941 21.1101 23.9961V24H21.106H8.31511H8.31303V23.9961C7.51697 23.9941 6.7914 23.6895 6.26898 23.1953C5.75071 22.7051 5.42731 22.0273 5.42524 21.2773H5.42109V21.2734V18.0684H2.89401H2.89194V18.0645C2.09588 18.0625 1.3703 17.7578 0.847888 17.2637C0.329619 16.7734 0.00621923 16.0957 0.00414615 15.3457H0V15.3418V2.72656V2.72461H0.00414615C0.00621923 1.97266 0.331692 1.29102 0.854107 0.798828C1.37445 0.310547 2.09381 0.00585938 2.88987 0.00390625V0H2.89401H15.6849H15.687V0.00390625C16.4851 0.00585938 17.2086 0.310547 17.731 0.804688C18.2493 1.29492 18.5727 1.97266 18.5748 2.72266H18.5789V2.72656ZM16.3856 4.23633V2.72656V2.72266H16.3897C16.3897 2.54492 16.3089 2.38086 16.1804 2.25977C16.0539 2.14062 15.8777 2.06445 15.689 2.06445V2.06836H15.687H2.89609H2.89194V2.06445C2.70329 2.06445 2.52915 2.14062 2.40062 2.26172C2.27416 2.38086 2.19331 2.54688 2.19331 2.72461H2.19746V2.72656V15.3418V15.3457H2.19331C2.19331 15.5234 2.27416 15.6875 2.40269 15.8086C2.52915 15.9277 2.70536 16.0039 2.89401 16.0039V16H2.89609H5.42317V6.96289V6.96094H5.42731C5.42939 6.20898 5.75486 5.52734 6.27727 5.03516C6.79762 4.54688 7.51697 4.24219 8.31303 4.24023V4.23633H8.31718H16.3856ZM21.8046 21.2734V6.96289V6.95898H21.8088C21.8088 6.78125 21.7279 6.61719 21.5994 6.49609C21.4729 6.37695 21.2967 6.30078 21.1081 6.30078V6.30469H21.106H8.31511H8.31096V6.30078C8.12231 6.30078 7.94817 6.37695 7.81964 6.49805C7.69318 6.61719 7.61234 6.7832 7.61234 6.96094H7.61648V6.96289V21.2734V21.2773H7.61234C7.61234 21.4551 7.69318 21.6191 7.82172 21.7402C7.94817 21.8594 8.12438 21.9355 8.31303 21.9355V21.9316H8.31511H21.106H21.1101V21.9355C21.2988 21.9355 21.4729 21.8594 21.6014 21.7383C21.7279 21.6191 21.8088 21.4531 21.8088 21.2754H21.8046V21.2734Z" fill="white" fill-opacity="0.6"/>
</g>
<defs>
<clipPath id="clip0_2739_1415">
<rect width="24" height="24" fill="white"/>
</clipPath>
</defs>
</svg>
